<svg xmlns="http://www.w3.org/2000/svg" width="805" height="600"><rect width="805" height="600" x="0" y="0" fill="#FFFFFF" id="background"/><g id="viz"><g transform="translate(0,0)"><g transform="translate(60,40)"><g class="bars"><rect id="undefined - ene" x="7.910238429172523" y="235.9328571428571" height="264.0671428571429" width="50.180575035063114" fill="#2197ff"/><rect id="undefined - feb" x="66.00105189340815" y="196.22142857142853" height="303.77857142857147" width="50.180575035063114" fill="#2197ff"/><rect id="undefined - mar" x="124.09186535764377" y="72.60857142857147" height="427.39142857142855" width="50.180575035063114" fill="#2197ff"/><rect id="undefined - abr" x="182.1826788218794" y="226.54000000000002" height="273.46" width="50.180575035063114" fill="#2197ff"/><rect id="undefined - may" x="240.27349228611502" y="70.12714285714283" height="429.8728571428572" width="50.180575035063114" fill="#2197ff"/><rect id="undefined - jun" x="298.36430575035064" y="41.01285714285713" height="458.9871428571429" width="50.180575035063114" fill="#2197ff"/><rect id="undefined - jul" x="356.45511921458626" y="87.16285714285715" height="412.83714285714285" width="50.180575035063114" fill="#2197ff"/><rect id="undefined - ago" x="414.5459326788219" y="100.36285714285714" height="399.63714285714286" width="50.180575035063114" fill="#2197ff"/><rect id="undefined - sept" x="472.6367461430575" y="318.3628571428572" height="181.6371428571428" width="50.180575035063114" fill="#2197ff"/><rect id="undefined - oct" x="530.7275596072932" y="177.7414285714286" height="322.2585714285714" width="50.180575035063114" fill="#2197ff"/><rect id="undefined - nov" x="588.8183730715288" y="253.47857142857146" height="246.52142857142854" width="50.180575035063114" fill="#2197ff"/><rect id="undefined - dic" x="646.9091865357643" y="265.93285714285713" height="234.06714285714287" width="50.180575035063114" fill="#2197ff"/></g><g id="xAxis" transform="translate(0,500)" fill="none" font-size="10" font-family="sans-serif" text-anchor="middle"><path class="domain" stroke="currentColor" d="M0,0H705"/><g class="tick" opacity="1" transform="translate(33.00052594670408,0)"><line stroke="currentColor" y2="6"/><text fill="currentColor" y="9" dy="0.71em">ene</text></g><g class="tick" opacity="1" transform="translate(91.0913394109397,0)"><line stroke="currentColor" y2="6"/><text fill="currentColor" y="9" dy="0.71em">feb</text></g><g class="tick" opacity="1" transform="translate(149.18215287517532,0)"><line stroke="currentColor" y2="6"/><text fill="currentColor" y="9" dy="0.71em">mar</text></g><g class="tick" opacity="1" transform="translate(207.27296633941094,0)"><line stroke="currentColor" y2="6"/><text fill="currentColor" y="9" dy="0.71em">abr</text></g><g class="tick" opacity="1" transform="translate(265.3637798036466,0)"><line stroke="currentColor" y2="6"/><text fill="currentColor" y="9" dy="0.71em">may</text></g><g class="tick" opacity="1" transform="translate(323.4545932678822,0)"><line stroke="currentColor" y2="6"/><text fill="currentColor" y="9" dy="0.71em">jun</text></g><g class="tick" opacity="1" transform="translate(381.54540673211784,0)"><line stroke="currentColor" y2="6"/><text fill="currentColor" y="9" dy="0.71em">jul</text></g><g class="tick" opacity="1" transform="translate(439.63622019635346,0)"><line stroke="currentColor" y2="6"/><text fill="currentColor" y="9" dy="0.71em">ago</text></g><g class="tick" opacity="1" transform="translate(497.7270336605891,0)"><line stroke="currentColor" y2="6"/><text fill="currentColor" y="9" dy="0.71em">sept</text></g><g class="tick" opacity="1" transform="translate(555.8178471248248,0)"><line stroke="currentColor" y2="6"/><text fill="currentColor" y="9" dy="0.71em">oct</text></g><g class="tick" opacity="1" transform="translate(613.9086605890603,0)"><line stroke="currentColor" y2="6"/><text fill="currentColor" y="9" dy="0.71em">nov</text></g><g class="tick" opacity="1" transform="translate(671.9994740532959,0)"><line stroke="currentColor" y2="6"/><text fill="currentColor" y="9" dy="0.71em">dic</text></g><text x="705" y="-4" text-anchor="end" style="font-family: Arial, sans-serif; font-size: 12px; fill: rgb(123, 123, 123); font-weight: bold;">Mes - Mes</text></g><g id="yAxis" fill="none" font-size="10" font-family="sans-serif" text-anchor="end"><path class="domain" stroke="currentColor" d="M-6,500H0V0H-6"/><g class="tick" opacity="1" transform="translate(0,500)"><line stroke="currentColor" x2="-6"/><text fill="currentColor" x="-9" dy="0.32em">0</text></g><g class="tick" opacity="1" transform="translate(0,428.5714285714286)"><line stroke="currentColor" x2="-6"/><text fill="currentColor" x="-9" dy="0.32em">50</text></g><g class="tick" opacity="1" transform="translate(0,357.14285714285717)"><line stroke="currentColor" x2="-6"/><text fill="currentColor" x="-9" dy="0.32em">100</text></g><g class="tick" opacity="1" transform="translate(0,285.7142857142857)"><line stroke="currentColor" x2="-6"/><text fill="currentColor" x="-9" dy="0.32em">150</text></g><g class="tick" opacity="1" transform="translate(0,214.2857142857143)"><line stroke="currentColor" x2="-6"/><text fill="currentColor" x="-9" dy="0.32em">200</text></g><g class="tick" opacity="1" transform="translate(0,142.85714285714286)"><line stroke="currentColor" x2="-6"/><text fill="currentColor" x="-9" dy="0.32em">250</text></g><g class="tick" opacity="1" transform="translate(0,71.42857142857146)"><line stroke="currentColor" x2="-6"/><text fill="currentColor" x="-9" dy="0.32em">300</text></g><g class="tick" opacity="1" transform="translate(0,0)"><line stroke="currentColor" x2="-6"/><text fill="currentColor" x="-9" dy="0.32em">350</text></g><text x="4" text-anchor="start" dominant-baseline="hanging" style="font-family: Arial, sans-serif; font-size: 12px; fill: rgb(123, 123, 123); font-weight: bold;">Promedio [sum]</text></g></g><text y="4" x="4" style="font-family: Arial, sans-serif; font-size: 12px; fill: black; font-weight: bold; dominant-baseline: hanging;"/></g></g></svg>
