<svg xmlns="http://www.w3.org/2000/svg" width="805" height="600"><rect width="805" height="600" x="0" y="0" fill="#FFFFFF" id="background"/><g id="viz"><g transform="translate(0,0)"><g transform="translate(90,40)"><g class="bars"><rect id="undefined - ene" x="9.854014598540175" y="222.729" height="277.27099999999996" width="45.57481751824817" fill="#34a3f1"/><rect id="undefined - feb" x="65.28284671532849" y="181.03199999999998" height="318.968" width="45.57481751824817" fill="#34a3f1"/><rect id="undefined - mar" x="120.7116788321168" y="51.238499999999966" height="448.7615" width="45.57481751824817" fill="#34a3f1"/><rect id="undefined - abr" x="176.1405109489051" y="212.86649999999995" height="287.1335" width="45.57481751824817" fill="#34a3f1"/><rect id="undefined - may" x="231.56934306569343" y="48.63299999999998" height="451.367" width="45.57481751824817" fill="#34a3f1"/><rect id="undefined - jun" x="286.99817518248176" y="18.063499999999955" height="481.9365" width="45.57481751824817" fill="#34a3f1"/><rect id="undefined - jul" x="342.42700729927003" y="66.52150000000002" height="433.4785" width="45.57481751824817" fill="#34a3f1"/><rect id="undefined - ago" x="397.85583941605836" y="80.38049999999997" height="419.6195" width="45.57481751824817" fill="#34a3f1"/><rect id="undefined - sept" x="453.2846715328467" y="372.8545" height="127.14550000000003" width="45.57481751824817" fill="#34a3f1"/><rect id="undefined - oct" x="508.713503649635" y="161.62900000000002" height="338.371" width="45.57481751824817" fill="#34a3f1"/><rect id="undefined - nov" x="564.1423357664233" y="241.152" height="258.848" width="45.57481751824817" fill="#34a3f1"/><rect id="undefined - dic" x="619.5711678832116" y="254.2295" height="245.7705" width="45.57481751824817" fill="#34a3f1"/></g><g id="xAxis" transform="translate(0,500)" fill="none" font-size="10" font-family="sans-serif" text-anchor="middle"><path class="domain" stroke="currentColor" d="M0,0H675"/><g class="tick" opacity="1" transform="translate(32.64142335766426,0)"><line stroke="currentColor" y2="6"/><text fill="currentColor" y="9" dy="0.71em">ene</text></g><g class="tick" opacity="1" transform="translate(88.07025547445258,0)"><line stroke="currentColor" y2="6"/><text fill="currentColor" y="9" dy="0.71em">feb</text></g><g class="tick" opacity="1" transform="translate(143.49908759124088,0)"><line stroke="currentColor" y2="6"/><text fill="currentColor" y="9" dy="0.71em">mar</text></g><g class="tick" opacity="1" transform="translate(198.92791970802918,0)"><line stroke="currentColor" y2="6"/><text fill="currentColor" y="9" dy="0.71em">abr</text></g><g class="tick" opacity="1" transform="translate(254.3567518248175,0)"><line stroke="currentColor" y2="6"/><text fill="currentColor" y="9" dy="0.71em">may</text></g><g class="tick" opacity="1" transform="translate(309.78558394160586,0)"><line stroke="currentColor" y2="6"/><text fill="currentColor" y="9" dy="0.71em">jun</text></g><g class="tick" opacity="1" transform="translate(365.21441605839414,0)"><line stroke="currentColor" y2="6"/><text fill="currentColor" y="9" dy="0.71em">jul</text></g><g class="tick" opacity="1" transform="translate(420.64324817518246,0)"><line stroke="currentColor" y2="6"/><text fill="currentColor" y="9" dy="0.71em">ago</text></g><g class="tick" opacity="1" transform="translate(476.0720802919708,0)"><line stroke="currentColor" y2="6"/><text fill="currentColor" y="9" dy="0.71em">sept</text></g><g class="tick" opacity="1" transform="translate(531.5009124087591,0)"><line stroke="currentColor" y2="6"/><text fill="currentColor" y="9" dy="0.71em">oct</text></g><g class="tick" opacity="1" transform="translate(586.9297445255474,0)"><line stroke="currentColor" y2="6"/><text fill="currentColor" y="9" dy="0.71em">nov</text></g><g class="tick" opacity="1" transform="translate(642.3585766423357,0)"><line stroke="currentColor" y2="6"/><text fill="currentColor" y="9" dy="0.71em">dic</text></g><text x="675" y="-4" text-anchor="end" style="font-family: Arial, sans-serif; font-size: 12px; fill: rgb(123, 123, 123); font-weight: bold;">Fecha - Mes</text></g><g id="yAxis" fill="none" font-size="10" font-family="sans-serif" text-anchor="end"><path class="domain" stroke="currentColor" d="M-6,500H0V0H-6"/><g class="tick" opacity="1" transform="translate(0,500)"><line stroke="currentColor" x2="-6"/><text fill="currentColor" x="-9" dy="0.32em">0</text></g><g class="tick" opacity="1" transform="translate(0,450)"><line stroke="currentColor" x2="-6"/><text fill="currentColor" x="-9" dy="0.32em">100</text></g><g class="tick" opacity="1" transform="translate(0,400)"><line stroke="currentColor" x2="-6"/><text fill="currentColor" x="-9" dy="0.32em">200</text></g><g class="tick" opacity="1" transform="translate(0,350)"><line stroke="currentColor" x2="-6"/><text fill="currentColor" x="-9" dy="0.32em">300</text></g><g class="tick" opacity="1" transform="translate(0,300)"><line stroke="currentColor" x2="-6"/><text fill="currentColor" x="-9" dy="0.32em">400</text></g><g class="tick" opacity="1" transform="translate(0,250)"><line stroke="currentColor" x2="-6"/><text fill="currentColor" x="-9" dy="0.32em">500</text></g><g class="tick" opacity="1" transform="translate(0,200)"><line stroke="currentColor" x2="-6"/><text fill="currentColor" x="-9" dy="0.32em">600</text></g><g class="tick" opacity="1" transform="translate(0,150.00000000000003)"><line stroke="currentColor" x2="-6"/><text fill="currentColor" x="-9" dy="0.32em">700</text></g><g class="tick" opacity="1" transform="translate(0,99.99999999999997)"><line stroke="currentColor" x2="-6"/><text fill="currentColor" x="-9" dy="0.32em">800</text></g><g class="tick" opacity="1" transform="translate(0,49.999999999999986)"><line stroke="currentColor" x2="-6"/><text fill="currentColor" x="-9" dy="0.32em">900</text></g><g class="tick" opacity="1" transform="translate(0,0)"><line stroke="currentColor" x2="-6"/><text fill="currentColor" x="-9" dy="0.32em">1,000</text></g><text x="4" text-anchor="start" dominant-baseline="hanging" style="font-family: Arial, sans-serif; font-size: 12px; fill: rgb(123, 123, 123); font-weight: bold;">Suma total [sum]</text></g></g></g></g></svg>